<svg version="1.1" xmlns="http://www.w3.org/2000/svg" viewBox="0 0 1414.016926184919 1155.2757925549474" width="4242.050778554757" height="3465.827377664842">
  <!-- svg-source:excalidraw -->
  
  <defs>
    <style class="style-fonts">
      @font-face {
        font-family: "Virgil";
        src: url("https://excalidraw.com/Virgil.woff2");
      }
      @font-face {
        font-family: "Cascadia";
        src: url("https://excalidraw.com/Cascadia.woff2");
      }
    </style>
  </defs>
  <rect x="0" y="0" width="1414.016926184919" height="1155.2757925549474" fill="#ffffff"></rect><g stroke-linecap="round"><g transform="translate(82.70947386633293 10) rotate(0 -0.04605306993846625 82.54067332569264)" fill-rule="evenodd"><path d="M0 0 L-72.71 41.3 L-72.71 123.73 L-0.14 165.08 L72.62 123.45 L72.62 40.52 L0 0" stroke="none" stroke-width="0" fill="#aecbfa" fill-rule="evenodd"></path><path d="M0 0 C-24.82 14.1, -49.63 28.19, -72.71 41.3 M0 0 C-18.28 10.38, -36.55 20.76, -72.71 41.3 M-72.71 41.3 C-72.71 74.11, -72.71 106.92, -72.71 123.73 M-72.71 41.3 C-72.71 67.58, -72.71 93.86, -72.71 123.73 M-72.71 123.73 C-56.26 133.1, -39.82 142.47, -0.14 165.08 M-72.71 123.73 C-54.34 134.2, -35.97 144.67, -0.14 165.08 M-0.14 165.08 C25.91 150.18, 51.97 135.27, 72.62 123.45 M-0.14 165.08 C20.15 153.47, 40.44 141.86, 72.62 123.45 M72.62 123.45 C72.62 94.05, 72.62 64.64, 72.62 40.52 M72.62 123.45 C72.62 96.08, 72.62 68.7, 72.62 40.52 M72.62 40.52 C52.42 29.25, 32.23 17.99, 0 0 M72.62 40.52 C52.17 29.11, 31.71 17.7, 0 0 M0 0 C0 0, 0 0, 0 0 M0 0 C0 0, 0 0, 0 0" stroke="#000000" stroke-width="1" fill="none"></path></g></g><mask></mask><g stroke-linecap="round"><g transform="translate(82.75552106955752 27.9586419697755) rotate(0 -0.09209962130341864 64.55901459880727)" fill-rule="evenodd"><path d="M0 0 L-57.1 32.46 L-57.1 96.65 L-0.23 129.12 L56.92 96.42 L56.92 31.77 L0 0" stroke="none" stroke-width="0" fill="#fff" fill-rule="evenodd"></path><path d="M0 0 C-13.25 7.53, -26.5 15.07, -57.1 32.46 M0 0 C-22.73 12.92, -45.45 25.84, -57.1 32.46 M-57.1 32.46 C-57.1 46.39, -57.1 60.31, -57.1 96.65 M-57.1 32.46 C-57.1 55.13, -57.1 77.8, -57.1 96.65 M-57.1 96.65 C-42.95 104.73, -28.79 112.81, -0.23 129.12 M-57.1 96.65 C-39.8 106.53, -22.51 116.4, -0.23 129.12 M-0.23 129.12 C15.61 120.06, 31.44 111, 56.92 96.42 M-0.23 129.12 C15.72 119.99, 31.68 110.86, 56.92 96.42 M56.92 96.42 C56.92 77.79, 56.92 59.16, 56.92 31.77 M56.92 96.42 C56.92 76.39, 56.92 56.36, 56.92 31.77 M56.92 31.77 C35.58 19.86, 14.25 7.96, 0 0 M56.92 31.77 C41.99 23.44, 27.07 15.11, 0 0 M0 0 C0 0, 0 0, 0 0 M0 0 C0 0, 0 0, 0 0" stroke="#000000" stroke-width="1" fill="none"></path></g></g><mask></mask><g stroke-linecap="round"><g transform="translate(86.30119743654632 94.49770847029254) rotate(0 16.139753323773107 9.62399323750435)" fill-rule="evenodd"><path d="M0 0 L0 38.36 L32.28 19.43 L32.28 -19.11 L0 0" stroke="none" stroke-width="0" fill="#4285f4" fill-rule="evenodd"></path><path d="M0 0 C0 15.03, 0 30.07, 0 38.36 M0 0 C0 10.43, 0 20.86, 0 38.36 M0 38.36 C8.93 33.12, 17.87 27.88, 32.28 19.43 M0 38.36 C11.88 31.39, 23.76 24.43, 32.28 19.43 M32.28 19.43 C32.28 7.35, 32.28 -4.72, 32.28 -19.11 M32.28 19.43 C32.28 10.76, 32.28 2.09, 32.28 -19.11 M32.28 -19.11 C22.98 -13.61, 13.69 -8.1, 0 0 M32.28 -19.11 C20.78 -12.3, 9.29 -5.5, 0 0 M0 0 C0 0, 0 0, 0 0 M0 0 C0 0, 0 0, 0 0" stroke="#000000" stroke-width="1" fill="none"></path></g></g><mask></mask><g stroke-linecap="round"><g transform="translate(49.64715433428978 69.17142337677137) rotate(0 33.016272328820946 0.06906819740413539)" fill-rule="evenodd"><path d="M0 0 L32.74 18.97 L66.03 -0.05 L32.74 -18.83 L0 0" stroke="none" stroke-width="0" fill="#aecbfa" fill-rule="evenodd"></path><path d="M0 0 C8.99 5.21, 17.99 10.42, 32.74 18.97 M0 0 C10.87 6.3, 21.73 12.59, 32.74 18.97 M32.74 18.97 C40.89 14.32, 49.04 9.66, 66.03 -0.05 M32.74 18.97 C39.58 15.06, 46.43 11.15, 66.03 -0.05 M66.03 -0.05 C54.14 -6.76, 42.25 -13.47, 32.74 -18.83 M66.03 -0.05 C56.54 -5.4, 47.04 -10.76, 32.74 -18.83 M32.74 -18.83 C24.43 -14.06, 16.13 -9.28, 0 0 M32.74 -18.83 C24.55 -14.12, 16.36 -9.41, 0 0 M0 0 C0 0, 0 0, 0 0 M0 0 C0 0, 0 0, 0 0" stroke="#000000" stroke-width="1" fill="none"></path></g></g><mask></mask><g stroke-linecap="round"><g transform="translate(46.561949999537546 75.57206284755762) rotate(0 15.909512092802743 28.641733266683673)" fill-rule="evenodd"><path d="M0 0 L32.05 19.16 L32.05 57.28 L-0.23 37.76 L0 0" stroke="none" stroke-width="0" fill="#669df6" fill-rule="evenodd"></path><path d="M0 0 C11.2 6.7, 22.41 13.39, 32.05 19.16 M0 0 C6.8 4.07, 13.61 8.13, 32.05 19.16 M32.05 19.16 C32.05 33.36, 32.05 47.56, 32.05 57.28 M32.05 19.16 C32.05 27.35, 32.05 35.54, 32.05 57.28 M32.05 57.28 C23.33 52.01, 14.61 46.73, -0.23 37.76 M32.05 57.28 C19.4 49.63, 6.74 41.98, -0.23 37.76 M-0.23 37.76 C-0.15 24.21, -0.06 10.65, 0 0 M-0.23 37.76 C-0.17 27.55, -0.11 17.34, 0 0 M0 0 C0 0, 0 0, 0 0 M0 0 C0 0, 0 0, 0 0" stroke="#000000" stroke-width="1" fill="none"></path></g></g><mask></mask><g stroke-linecap="round"><g transform="translate(86.30119743654723 54.942649846160975) rotate(0 -3.7068467931254645 -13.492003938193193)" fill-rule="evenodd"><path d="M0 0 L0 -25 L-3.55 -26.98 L-7.41 -24.73 L-7.41 0 L0 0" stroke="none" stroke-width="0" fill="#aecbfa" fill-rule="evenodd"></path><path d="M0 0 C0 -5.19, 0 -10.38, 0 -25 M0 0 C0 -7.9, 0 -15.81, 0 -25 M0 -25 C-0.72 -25.4, -1.43 -25.8, -3.55 -26.98 M0 -25 C-0.87 -25.49, -1.74 -25.97, -3.55 -26.98 M-3.55 -26.98 C-4.33 -26.53, -5.11 -26.07, -7.41 -24.73 M-3.55 -26.98 C-4.64 -26.34, -5.74 -25.7, -7.41 -24.73 M-7.41 -24.73 C-7.41 -19.38, -7.41 -14.03, -7.41 0 M-7.41 -24.73 C-7.41 -17.57, -7.41 -10.42, -7.41 0 M-7.41 0 C-5.06 0, -2.71 0, 0 0 M-7.41 0 C-5.23 0, -3.05 0, 0 0 M0 0 C0 0, 0 0, 0 0 M0 0 C0 0, 0 0, 0 0" stroke="#000000" stroke-width="1" fill="none"></path></g></g><mask></mask><g stroke-linecap="round"><g transform="translate(139.6705943325635 121.29752492636203) rotate(0 -14.82739238736076 -4.858042518259822)" fill-rule="evenodd"><path d="M0 0 L-26.2 -15.24 L-29.65 -9.26 L-4.24 5.53 L0 3.09 L0 0" stroke="none" stroke-width="0" fill="#4285f4" fill-rule="evenodd"></path><path d="M0 0 C-7.01 -4.08, -14.01 -8.15, -26.2 -15.24 M0 0 C-5.48 -3.19, -10.96 -6.38, -26.2 -15.24 M-26.2 -15.24 C-27.14 -13.62, -28.07 -11.99, -29.65 -9.26 M-26.2 -15.24 C-27.02 -13.81, -27.85 -12.39, -29.65 -9.26 M-29.65 -9.26 C-22.9 -5.33, -16.14 -1.4, -4.24 5.53 M-29.65 -9.26 C-21.39 -4.45, -13.12 0.36, -4.24 5.53 M-4.24 5.53 C-2.66 4.62, -1.08 3.71, 0 3.09 M-4.24 5.53 C-2.82 4.71, -1.4 3.89, 0 3.09 M0 3.09 C0 1.91, 0 0.73, 0 0 M0 3.09 C0 2.45, 0 1.82, 0 0 M0 0 C0 0, 0 0, 0 0 M0 0 C0 0, 0 0, 0 0" stroke="#000000" stroke-width="1" fill="none"></path></g></g><mask></mask><g stroke-linecap="round"><g transform="translate(50.89044446587127 106.19384410480802) rotate(0 -10.844259767471954 10.383779912960676)" fill-rule="evenodd"><path d="M0 0 L-25.23 15.2 L-25.23 18.42 L-21.14 20.77 L3.55 5.94 L0 0" stroke="none" stroke-width="0" fill="#669df6" fill-rule="evenodd"></path><path d="M0 0 C-7.12 4.29, -14.24 8.58, -25.23 15.2 M0 0 C-5.4 3.25, -10.8 6.5, -25.23 15.2 M-25.23 15.2 C-25.23 15.91, -25.23 16.63, -25.23 18.42 M-25.23 15.2 C-25.23 15.93, -25.23 16.65, -25.23 18.42 M-25.23 18.42 C-24.21 19, -23.19 19.59, -21.14 20.77 M-25.23 18.42 C-24.01 19.12, -22.79 19.82, -21.14 20.77 M-21.14 20.77 C-15.83 17.58, -10.53 14.4, 3.55 5.94 M-21.14 20.77 C-11.6 15.04, -2.06 9.31, 3.55 5.94 M3.55 5.94 C2.67 4.48, 1.8 3.02, 0 0 M3.55 5.94 C2.79 4.67, 2.03 3.4, 0 0 M0 0 C0 0, 0 0, 0 0 M0 0 C0 0, 0 0, 0 0" stroke="#000000" stroke-width="1" fill="none"></path></g></g><mask></mask><g transform="translate(44.788420796394576 174.84473663568428) rotate(0 38.0126953125 21)"><text x="0" y="0" font-family="Helvetica, Segoe UI Emoji" font-size="35.99999999999998px" fill="#000000" text-anchor="start" style="white-space: pre;" direction="ltr" dominant-baseline="text-before-edge">GKE</text></g><g stroke-linecap="round" transform="translate(49.08207491393273 84.53988910579233) rotate(0 376.7751355418229 225.1589313661127)"><path d="M32 0 M32 0 C291.87 0.71, 551.21 -0.17, 721.55 0 M32 0 C254.73 -2.46, 477.52 -2.06, 721.55 0 M721.55 0 C743.25 -1.75, 754.67 10.22, 753.55 32 M721.55 0 C742.4 1.65, 755.81 12.88, 753.55 32 M753.55 32 C752.87 111.11, 753.17 189.22, 753.55 418.32 M753.55 32 C752.05 113.83, 751.72 196.24, 753.55 418.32 M753.55 418.32 C755.13 440.76, 742.75 449.61, 721.55 450.32 M753.55 418.32 C752.03 439.54, 743.18 450.03, 721.55 450.32 M721.55 450.32 C453.88 452.7, 184.22 451.76, 32 450.32 M721.55 450.32 C528.93 453.29, 336.92 453.21, 32 450.32 M32 450.32 C10.4 448.38, 0.52 439.77, 0 418.32 M32 450.32 C8.93 452.1, 1.19 438.31, 0 418.32 M0 418.32 C2.43 267.57, 2.61 114.11, 0 32 M0 418.32 C-1.56 307.61, -1.82 197.59, 0 32 M0 32 C0.26 11.55, 9.29 0.04, 32 0 M0 32 C1.21 10.92, 12.04 -1.78, 32 0" stroke="#364fc7" stroke-width="1" fill="none"></path></g><g stroke-linecap="round"><g transform="translate(448.78619356612944 366.51187191540043) rotate(0 10.786458161776068 43.14583650464169)" fill-rule="evenodd"><path d="M0 0 L64.72 53.93 L64.72 86.29 L-43.15 0 L0 0" stroke="none" stroke-width="0" fill="#669df6" fill-rule="evenodd"></path><path d="M0 0 C18.45 15.38, 36.91 30.76, 64.72 53.93 M0 0 C22.81 19.01, 45.63 38.02, 64.72 53.93 M64.72 53.93 C64.72 63.54, 64.72 73.14, 64.72 86.29 M64.72 53.93 C64.72 64.5, 64.72 75.07, 64.72 86.29 M64.72 86.29 C30.81 59.17, -3.09 32.04, -43.15 0 M64.72 86.29 C29.18 57.86, -6.35 29.44, -43.15 0 M-43.15 0 C-30.02 0, -16.9 0, 0 0 M-43.15 0 C-30.73 0, -18.31 0, 0 0 M0 0 C0 0, 0 0, 0 0 M0 0 C0 0, 0 0, 0 0" stroke="#000000" stroke-width="1" fill="none"></path></g></g><mask></mask><g stroke-linecap="round"><g transform="translate(513.5049406080159 420.4441714037405) rotate(0 53.932291773264296 -10.786462983698357)" fill-rule="evenodd"><path d="M0 0 L64.72 -53.93 L107.86 -53.93 L0 32.36 L0 0" stroke="none" stroke-width="0" fill="#669df6" fill-rule="evenodd"></path><path d="M0 0 C24.01 -20.01, 48.02 -40.02, 64.72 -53.93 M0 0 C23.27 -19.4, 46.55 -38.79, 64.72 -53.93 M64.72 -53.93 C81.23 -53.93, 97.75 -53.93, 107.86 -53.93 M64.72 -53.93 C81.75 -53.93, 98.77 -53.93, 107.86 -53.93 M107.86 -53.93 C85.77 -36.26, 63.67 -18.58, 0 32.36 M107.86 -53.93 C65.22 -19.82, 22.57 14.3, 0 32.36 M0 32.36 C0 23.63, 0 14.9, 0 0 M0 32.36 C0 24.26, 0 16.17, 0 0 M0 0 C0 0, 0 0, 0 0 M0 0 C0 0, 0 0, 0 0" stroke="#000000" stroke-width="1" fill="none"></path></g></g><mask></mask><g stroke-linecap="round"><g transform="translate(405.64036284779445 366.51187191540043) rotate(0 53.93228888011083 -43.14583071833488)" fill-rule="evenodd"><path d="M0 0 L107.86 -86.29 L107.86 -53.93 L43.15 0 L0 0" stroke="none" stroke-width="0" fill="#aecbfa" fill-rule="evenodd"></path><path d="M0 0 C22.37 -17.89, 44.74 -35.79, 107.86 -86.29 M0 0 C23.7 -18.96, 47.39 -37.92, 107.86 -86.29 M107.86 -86.29 C107.86 -78.24, 107.86 -70.19, 107.86 -53.93 M107.86 -86.29 C107.86 -76.68, 107.86 -67.06, 107.86 -53.93 M107.86 -53.93 C86.61 -36.22, 65.36 -18.51, 43.15 0 M107.86 -53.93 C86 -35.71, 64.14 -17.5, 43.15 0 M43.15 0 C33.38 0, 23.62 0, 0 0 M43.15 0 C34.05 0, 24.96 0, 0 0 M0 0 C0 0, 0 0, 0 0 M0 0 C0 0, 0 0, 0 0" stroke="#000000" stroke-width="1" fill="none"></path></g></g><mask></mask><g stroke-linecap="round"><g transform="translate(513.5049406080159 312.5795878572119) rotate(0 53.932291773264296 10.786453339853551)" fill-rule="evenodd"><path d="M0 0 L64.72 53.93 L107.86 53.93 L0 -32.36 L0 0" stroke="none" stroke-width="0" fill="#aecbfa" fill-rule="evenodd"></path><path d="M0 0 C15 12.5, 30 25, 64.72 53.93 M0 0 C18.78 15.65, 37.57 31.31, 64.72 53.93 M64.72 53.93 C76.71 53.93, 88.71 53.93, 107.86 53.93 M64.72 53.93 C77.61 53.93, 90.5 53.93, 107.86 53.93 M107.86 53.93 C80.04 31.67, 52.22 9.42, 0 -32.36 M107.86 53.93 C66.34 20.71, 24.81 -12.51, 0 -32.36 M0 -32.36 C0 -20.06, 0 -7.76, 0 0 M0 -32.36 C0 -25.32, 0 -18.28, 0 0 M0 0 C0 0, 0 0, 0 0 M0 0 C0 0, 0 0, 0 0" stroke="#000000" stroke-width="1" fill="none"></path></g></g><mask></mask><g stroke-linecap="round" transform="translate(491.93203007077113 344.9389613781552) rotate(0 21.572916323551908 21.572916323551908)"><path d="M43.15 21.57 C43.15 22.82, 43.03 24.09, 42.82 25.32 C42.6 26.55, 42.27 27.78, 41.84 28.95 C41.42 30.12, 40.88 31.28, 40.26 32.36 C39.63 33.44, 38.9 34.48, 38.1 35.44 C37.3 36.4, 36.4 37.3, 35.44 38.1 C34.48 38.9, 33.44 39.63, 32.36 40.26 C31.28 40.88, 30.12 41.42, 28.95 41.84 C27.78 42.27, 26.55 42.6, 25.32 42.82 C24.09 43.03, 22.82 43.15, 21.57 43.15 C20.32 43.15, 19.06 43.03, 17.83 42.82 C16.6 42.6, 15.37 42.27, 14.19 41.84 C13.02 41.42, 11.87 40.88, 10.79 40.26 C9.71 39.63, 8.66 38.9, 7.71 38.1 C6.75 37.3, 5.85 36.4, 5.05 35.44 C4.24 34.48, 3.51 33.44, 2.89 32.36 C2.27 31.28, 1.73 30.12, 1.3 28.95 C0.87 27.78, 0.54 26.55, 0.33 25.32 C0.11 24.09, 0 22.82, 0 21.57 C0 20.32, 0.11 19.06, 0.33 17.83 C0.54 16.6, 0.87 15.37, 1.3 14.19 C1.73 13.02, 2.27 11.87, 2.89 10.79 C3.51 9.71, 4.24 8.66, 5.05 7.71 C5.85 6.75, 6.75 5.85, 7.71 5.05 C8.66 4.24, 9.71 3.51, 10.79 2.89 C11.87 2.27, 13.02 1.73, 14.19 1.3 C15.37 0.87, 16.6 0.54, 17.83 0.33 C19.06 0.11, 20.32 0, 21.57 0 C22.82 0, 24.09 0.11, 25.32 0.33 C26.55 0.54, 27.78 0.87, 28.95 1.3 C30.12 1.73, 31.28 2.27, 32.36 2.89 C33.44 3.51, 34.48 4.24, 35.44 5.05 C36.4 5.85, 37.3 6.75, 38.1 7.71 C38.9 8.66, 39.63 9.71, 40.26 10.79 C40.88 11.87, 41.42 13.02, 41.84 14.19 C42.27 15.37, 42.6 16.6, 42.82 17.83 C43.03 19.06, 43.09 20.95, 43.15 21.57 C43.2 22.2, 43.2 20.95, 43.15 21.57" stroke="none" stroke-width="0" fill="#4285f4"></path><path d="M43.15 21.57 C43.15 22.82, 43.03 24.09, 42.82 25.32 C42.6 26.55, 42.27 27.78, 41.84 28.95 C41.42 30.12, 40.88 31.28, 40.26 32.36 C39.63 33.44, 38.9 34.48, 38.1 35.44 C37.3 36.4, 36.4 37.3, 35.44 38.1 C34.48 38.9, 33.44 39.63, 32.36 40.26 C31.28 40.88, 30.12 41.42, 28.95 41.84 C27.78 42.27, 26.55 42.6, 25.32 42.82 C24.09 43.03, 22.82 43.15, 21.57 43.15 C20.32 43.15, 19.06 43.03, 17.83 42.82 C16.6 42.6, 15.37 42.27, 14.19 41.84 C13.02 41.42, 11.87 40.88, 10.79 40.26 C9.71 39.63, 8.66 38.9, 7.71 38.1 C6.75 37.3, 5.85 36.4, 5.05 35.44 C4.24 34.48, 3.51 33.44, 2.89 32.36 C2.27 31.28, 1.73 30.12, 1.3 28.95 C0.87 27.78, 0.54 26.55, 0.33 25.32 C0.11 24.09, 0 22.82, 0 21.57 C0 20.32, 0.11 19.06, 0.33 17.83 C0.54 16.6, 0.87 15.37, 1.3 14.19 C1.73 13.02, 2.27 11.87, 2.89 10.79 C3.51 9.71, 4.24 8.66, 5.05 7.71 C5.85 6.75, 6.75 5.85, 7.71 5.05 C8.66 4.24, 9.71 3.51, 10.79 2.89 C11.87 2.27, 13.02 1.73, 14.19 1.3 C15.37 0.87, 16.6 0.54, 17.83 0.33 C19.06 0.11, 20.32 0, 21.57 0 C22.82 0, 24.09 0.11, 25.32 0.33 C26.55 0.54, 27.78 0.87, 28.95 1.3 C30.12 1.73, 31.28 2.27, 32.36 2.89 C33.44 3.51, 34.48 4.24, 35.44 5.05 C36.4 5.85, 37.3 6.75, 38.1 7.71 C38.9 8.66, 39.63 9.71, 40.26 10.79 C40.88 11.87, 41.42 13.02, 41.84 14.19 C42.27 15.37, 42.6 16.6, 42.82 17.83 C43.03 19.06, 43.09 20.95, 43.15 21.57 C43.2 22.2, 43.2 20.95, 43.15 21.57" stroke="#000000" stroke-width="1" fill="none"></path></g><g transform="translate(278.6504882426959 464.7058969074985) rotate(0 250.1015625 21)"><text x="0" y="0" font-family="Helvetica, Segoe UI Emoji" font-size="35.99999999999998px" fill="#000000" text-anchor="start" style="white-space: pre;" direction="ltr" dominant-baseline="text-before-edge">MAX-Image-Caption-Generator</text></g><g stroke-linecap="round" transform="translate(736.194042771335 932.586178472068) rotate(0 80.61896167523196 28.216637162962797)"><path d="M0 0 L161.24 0 L161.24 56.43 L0 56.43" stroke="none" stroke-width="0" fill="#aecbfa"></path><path d="M0 0 C36.63 0, 73.26 0, 161.24 0 M0 0 C47.86 0, 95.72 0, 161.24 0 M161.24 0 C161.24 20.5, 161.24 41, 161.24 56.43 M161.24 0 C161.24 13.88, 161.24 27.77, 161.24 56.43 M161.24 56.43 C119.81 56.43, 78.38 56.43, 0 56.43 M161.24 56.43 C101.99 56.43, 42.74 56.43, 0 56.43 M0 56.43 C0 37.2, 0 17.96, 0 0 M0 56.43 C0 39.01, 0 21.58, 0 0" stroke="#000000" stroke-width="1" fill="none"></path></g><g stroke-linecap="round" transform="translate(881.3081740750697 932.586178472068) rotate(0 8.06189602336525 28.216637162962797)"><path d="M0 0 L16.12 0 L16.12 56.43 L0 56.43" stroke="none" stroke-width="0" fill="#669df6"></path><path d="M0 0 C3.3 0, 6.59 0, 16.12 0 M0 0 C4.75 0, 9.5 0, 16.12 0 M16.12 0 C16.12 11.56, 16.12 23.12, 16.12 56.43 M16.12 0 C16.12 21.18, 16.12 42.36, 16.12 56.43 M16.12 56.43 C11.83 56.43, 7.53 56.43, 0 56.43 M16.12 56.43 C12.44 56.43, 8.76 56.43, 0 56.43 M0 56.43 C0 35.95, 0 15.48, 0 0 M0 56.43 C0 34.51, 0 12.59, 0 0" stroke="#000000" stroke-width="1" fill="none"></path></g><g stroke-linecap="round"><g transform="translate(897.4319617970625 932.586178472068) rotate(0 -8.061893860996292 28.216635721383682)" fill-rule="evenodd"><path d="M0 0 L-16.12 0 L-16.12 56.43 L0 0 L0 0" stroke="none" stroke-width="0" fill="#4285f4" fill-rule="evenodd"></path><path d="M0 0 C-5.69 0, -11.37 0, -16.12 0 M0 0 C-4.49 0, -8.99 0, -16.12 0 M-16.12 0 C-16.12 13.8, -16.12 27.6, -16.12 56.43 M-16.12 0 C-16.12 20.46, -16.12 40.92, -16.12 56.43 M-16.12 56.43 C-10.49 36.7, -4.85 16.97, 0 0 M-16.12 56.43 C-12.02 42.08, -7.92 27.73, 0 0 M0 0 C0 0, 0 0, 0 0 M0 0 C0 0, 0 0, 0 0 M0 0 C0 0, 0 0, 0 0 M0 0 C0 0, 0 0, 0 0" stroke="#000000" stroke-width="1" fill="none"></path></g></g><mask></mask><g stroke-linecap="round" transform="translate(736.194042771335 932.586178472068) rotate(0 8.06189602336525 28.216637162962797)"><path d="M0 0 L16.12 0 L16.12 56.43 L0 56.43" stroke="none" stroke-width="0" fill="#669df6"></path><path d="M0 0 C3.27 0, 6.53 0, 16.12 0 M0 0 C6.08 0, 12.15 0, 16.12 0 M16.12 0 C16.12 13.19, 16.12 26.38, 16.12 56.43 M16.12 0 C16.12 20.71, 16.12 41.42, 16.12 56.43 M16.12 56.43 C10.92 56.43, 5.72 56.43, 0 56.43 M16.12 56.43 C11.4 56.43, 6.67 56.43, 0 56.43 M0 56.43 C0 35.57, 0 14.7, 0 0 M0 56.43 C0 38.4, 0 20.37, 0 0" stroke="#000000" stroke-width="1" fill="none"></path></g><g stroke-linecap="round" transform="translate(768.4416254232153 956.7718687045333) rotate(0 24.185687349306136 4.03094801168254)"><path d="M0 0 L48.37 0 L48.37 8.06 L0 8.06" stroke="none" stroke-width="0" fill="#fff"></path><path d="M0 0 C18 0, 35.99 0, 48.37 0 M0 0 C18.74 0, 37.48 0, 48.37 0 M48.37 0 C48.37 2.76, 48.37 5.53, 48.37 8.06 M48.37 0 C48.37 3.13, 48.37 6.26, 48.37 8.06 M48.37 8.06 C31.35 8.06, 14.32 8.06, 0 8.06 M48.37 8.06 C38.63 8.06, 28.89 8.06, 0 8.06 M0 8.06 C0 5.77, 0 3.47, 0 0 M0 8.06 C0 5.37, 0 2.68, 0 0" stroke="#000000" stroke-width="1" fill="none"></path></g><g stroke-linecap="round" transform="translate(840.998687471136 948.7099690772181) rotate(0 12.092843674653068 12.092843674653068)"><path d="M6.05 0 L18.14 0 L22.67 1.51 L24.19 6.05 L24.19 18.14 L22.67 22.67 L18.14 24.19 L6.05 24.19 L1.51 22.67 L0 18.14 L0.38 3.4 L1.51 1.51 L3.4 0.38 L6.05 0" stroke="none" stroke-width="0" fill="#fff"></path><path d="M6.05 0 M6.05 0 C9.63 0, 13.2 0, 18.14 0 M6.05 0 C9.93 0, 13.8 0, 18.14 0 M18.14 0 C22.17 0, 24.19 2.02, 24.19 6.05 M18.14 0 C22.17 0, 24.19 2.02, 24.19 6.05 M24.19 6.05 C24.19 9.19, 24.19 12.34, 24.19 18.14 M24.19 6.05 C24.19 10.14, 24.19 14.23, 24.19 18.14 M24.19 18.14 C24.19 22.17, 22.17 24.19, 18.14 24.19 M24.19 18.14 C24.19 22.17, 22.17 24.19, 18.14 24.19 M18.14 24.19 C15 24.19, 11.86 24.19, 6.05 24.19 M18.14 24.19 C15.24 24.19, 12.34 24.19, 6.05 24.19 M6.05 24.19 C2.02 24.19, 0 22.17, 0 18.14 M6.05 24.19 C2.02 24.19, 0 22.17, 0 18.14 M0 18.14 C0 14.47, 0 10.79, 0 6.05 M0 18.14 C0 14.5, 0 10.87, 0 6.05 M0 6.05 C0 2.02, 2.02 0, 6.05 0 M0 6.05 C0 2.02, 2.02 0, 6.05 0" stroke="#000000" stroke-width="1" fill="none"></path></g><g stroke-linecap="round" transform="translate(736.194042771335 1005.1432434031456) rotate(0 80.61896167523196 28.216637162962797)"><path d="M0 0 L161.24 0 L161.24 56.43 L0 56.43" stroke="none" stroke-width="0" fill="#aecbfa"></path><path d="M0 0 C55.41 0, 110.83 0, 161.24 0 M0 0 C54.34 0, 108.69 0, 161.24 0 M161.24 0 C161.24 14.59, 161.24 29.18, 161.24 56.43 M161.24 0 C161.24 18.1, 161.24 36.21, 161.24 56.43 M161.24 56.43 C103.71 56.43, 46.18 56.43, 0 56.43 M161.24 56.43 C106.71 56.43, 52.17 56.43, 0 56.43 M0 56.43 C0 37.41, 0 18.38, 0 0 M0 56.43 C0 42.9, 0 29.37, 0 0" stroke="#000000" stroke-width="1" fill="none"></path></g><g stroke-linecap="round" transform="translate(881.3081740750697 1005.1432434031456) rotate(0 8.06189602336525 28.216637162962797)"><path d="M0 0 L16.12 0 L16.12 56.43 L0 56.43" stroke="none" stroke-width="0" fill="#669df6"></path><path d="M0 0 C5.87 0, 11.75 0, 16.12 0 M0 0 C6.26 0, 12.52 0, 16.12 0 M16.12 0 C16.12 13.8, 16.12 27.6, 16.12 56.43 M16.12 0 C16.12 21.98, 16.12 43.96, 16.12 56.43 M16.12 56.43 C10.33 56.43, 4.53 56.43, 0 56.43 M16.12 56.43 C11.56 56.43, 7.01 56.43, 0 56.43 M0 56.43 C0 43.05, 0 29.67, 0 0 M0 56.43 C0 38.5, 0 20.56, 0 0" stroke="#000000" stroke-width="1" fill="none"></path></g><g stroke-linecap="round"><g transform="translate(897.4319617970625 1005.1432434031456) rotate(0 -8.061893860996292 28.216637162962797)" fill-rule="evenodd"><path d="M0 0 L-16.12 0 L-16.12 56.43 L0 0 L0 0" stroke="none" stroke-width="0" fill="#4285f4" fill-rule="evenodd"></path><path d="M0 0 C-5.31 0, -10.62 0, -16.12 0 M0 0 C-6.26 0, -12.53 0, -16.12 0 M-16.12 0 C-16.12 16.7, -16.12 33.4, -16.12 56.43 M-16.12 0 C-16.12 11.47, -16.12 22.94, -16.12 56.43 M-16.12 56.43 C-11.93 41.74, -7.73 27.06, 0 0 M-16.12 56.43 C-10.62 37.16, -5.11 17.89, 0 0 M0 0 C0 0, 0 0, 0 0 M0 0 C0 0, 0 0, 0 0 M0 0 C0 0, 0 0, 0 0 M0 0 C0 0, 0 0, 0 0" stroke="#000000" stroke-width="1" fill="none"></path></g></g><mask></mask><g stroke-linecap="round" transform="translate(736.194042771335 1005.1432434031456) rotate(0 8.06189602336525 28.216637162962797)"><path d="M0 0 L16.12 0 L16.12 56.43 L0 56.43" stroke="none" stroke-width="0" fill="#669df6"></path><path d="M0 0 C3.25 0, 6.49 0, 16.12 0 M0 0 C4.66 0, 9.32 0, 16.12 0 M16.12 0 C16.12 21.68, 16.12 43.36, 16.12 56.43 M16.12 0 C16.12 20.19, 16.12 40.39, 16.12 56.43 M16.12 56.43 C11.57 56.43, 7.02 56.43, 0 56.43 M16.12 56.43 C12.72 56.43, 9.32 56.43, 0 56.43 M0 56.43 C0 38.13, 0 19.84, 0 0 M0 56.43 C0 36.47, 0 16.5, 0 0" stroke="#000000" stroke-width="1" fill="none"></path></g><g stroke-linecap="round" transform="translate(768.4416254232153 1029.3289307524517) rotate(0 24.185687349306136 4.03094801168254)"><path d="M0 0 L48.37 0 L48.37 8.06 L0 8.06" stroke="none" stroke-width="0" fill="#fff"></path><path d="M0 0 C19.04 0, 38.09 0, 48.37 0 M0 0 C16.91 0, 33.83 0, 48.37 0 M48.37 0 C48.37 2.11, 48.37 4.22, 48.37 8.06 M48.37 0 C48.37 2.63, 48.37 5.27, 48.37 8.06 M48.37 8.06 C30.88 8.06, 13.39 8.06, 0 8.06 M48.37 8.06 C37.01 8.06, 25.65 8.06, 0 8.06 M0 8.06 C0 4.89, 0 1.71, 0 0 M0 8.06 C0 6.17, 0 4.28, 0 0" stroke="#000000" stroke-width="1" fill="none"></path></g><g stroke-linecap="round" transform="translate(840.998687471136 1021.2670311251375) rotate(0 12.092843674653068 12.092843674653068)"><path d="M6.05 0 L18.14 0 L22.67 1.51 L24.19 6.05 L24.19 18.14 L22.67 22.67 L18.14 24.19 L6.05 24.19 L1.51 22.67 L0 18.14 L0.38 3.4 L1.51 1.51 L3.4 0.38 L6.05 0" stroke="none" stroke-width="0" fill="#fff"></path><path d="M6.05 0 M6.05 0 C9.95 0, 13.85 0, 18.14 0 M6.05 0 C8.81 0, 11.57 0, 18.14 0 M18.14 0 C22.17 0, 24.19 2.02, 24.19 6.05 M18.14 0 C22.17 0, 24.19 2.02, 24.19 6.05 M24.19 6.05 C24.19 10.52, 24.19 14.99, 24.19 18.14 M24.19 6.05 C24.19 10.74, 24.19 15.44, 24.19 18.14 M24.19 18.14 C24.19 22.17, 22.17 24.19, 18.14 24.19 M24.19 18.14 C24.19 22.17, 22.17 24.19, 18.14 24.19 M18.14 24.19 C13.57 24.19, 9 24.19, 6.05 24.19 M18.14 24.19 C13.5 24.19, 8.87 24.19, 6.05 24.19 M6.05 24.19 C2.02 24.19, 0 22.17, 0 18.14 M6.05 24.19 C2.02 24.19, 0 22.17, 0 18.14 M0 18.14 C0 14.68, 0 11.23, 0 6.05 M0 18.14 C0 15.67, 0 13.21, 0 6.05 M0 6.05 C0 2.02, 2.02 0, 6.05 0 M0 6.05 C0 2.02, 2.02 0, 6.05 0" stroke="#000000" stroke-width="1" fill="none"></path></g><g transform="translate(755.3023159349125 1063.2757925549474) rotate(0 62.01068878173828 41)"><text x="62.01068878173828" y="0" font-family="Helvetica, Segoe UI Emoji" font-size="35.41666666666667px" fill="#000000" text-anchor="middle" style="white-space: pre;" direction="ltr" dominant-baseline="text-before-edge">Cloud</text><text x="62.01068878173828" y="41" font-family="Helvetica, Segoe UI Emoji" font-size="35.41666666666667px" fill="#000000" text-anchor="middle" style="white-space: pre;" direction="ltr" dominant-baseline="text-before-edge">Storage</text></g><g stroke-linecap="round" transform="translate(48.96439310107803 85.851200734744) rotate(0 376.71629463539557 473.2574103951132)"><path d="M32 0 M32 0 C261.16 -1.08, 489.26 -1.35, 721.43 0 M32 0 C238.19 2.54, 443.68 2.55, 721.43 0 M721.43 0 C741.42 0.51, 752.55 11.04, 753.43 32 M721.43 0 C742.77 -0.9, 753 9.43, 753.43 32 M753.43 32 C751.07 265.54, 751.08 499.7, 753.43 914.51 M753.43 32 C751.97 295.45, 752.03 559.54, 753.43 914.51 M753.43 914.51 C752.44 937.62, 740.81 948.36, 721.43 946.51 M753.43 914.51 C752.98 933.86, 742.98 945.33, 721.43 946.51 M721.43 946.51 C449.29 947.23, 177.69 947.32, 32 946.51 M721.43 946.51 C497.07 947.11, 272.83 947.69, 32 946.51 M32 946.51 C10.37 946.79, 0.89 935.56, 0 914.51 M32 946.51 C9.46 947.34, 1.61 933.97, 0 914.51 M0 914.51 C-0.25 649.1, -0.35 382.51, 0 32 M0 914.51 C-3.68 633.6, -3.35 352.14, 0 32 M0 32 C0.89 10.2, 9.08 1.6, 32 0 M0 32 C1.13 9.13, 10.72 -2.21, 32 0" stroke="#364fc7" stroke-width="1" fill="none"></path></g><g stroke-linecap="round"><g transform="translate(493.04782979482195 889.9546966698783) rotate(0 19.708994012510345 19.708990795183354)" fill-rule="evenodd"><path d="M0 0 L39.42 0 L39.42 39.42 L0 39.42 L0 0" stroke="none" stroke-width="0" fill="#4285f4" fill-rule="evenodd"></path><path d="M0 0 C15.4 0, 30.8 0, 39.42 0 M0 0 C15.48 0, 30.97 0, 39.42 0 M39.42 0 C39.42 10.63, 39.42 21.27, 39.42 39.42 M39.42 0 C39.42 15.7, 39.42 31.4, 39.42 39.42 M39.42 39.42 C26.5 39.42, 13.58 39.42, 0 39.42 M39.42 39.42 C29.49 39.42, 19.56 39.42, 0 39.42 M0 39.42 C0 27.92, 0 16.42, 0 0 M0 39.42 C0 31.39, 0 23.37, 0 0 M0 0 C0 0, 0 0, 0 0 M0 0 C0 0, 0 0, 0 0" stroke="#000000" stroke-width="1" fill="none"></path></g></g><mask></mask><g stroke-linecap="round"><g transform="translate(611.3373131590596 762.325626951357) rotate(0 -98.58048975389516 63.832286460530895)" fill-rule="evenodd"><path d="M0 0 L0 0 L-0.21 -0.93 L-0.48 -1.82 L-0.82 -2.69 L-1.22 -3.53 L-1.68 -4.32 L-2.2 -5.08 L-2.77 -5.8 L-3.39 -6.47 L-4.06 -7.09 L-4.78 -7.66 L-5.53 -8.18 L-6.33 -8.64 L-7.17 -9.05 L-8.04 -9.39 L-8.94 -9.66 L-9.87 -9.87 L-187.29 -9.87 L-187.29 -9.87 L-188.21 -9.66 L-189.11 -9.39 L-189.98 -9.05 L-190.81 -8.65 L-191.61 -8.19 L-192.37 -7.67 L-193.09 -7.1 L-193.76 -6.48 L-194.38 -5.81 L-194.95 -5.1 L-195.47 -4.34 L-195.93 -3.54 L-196.34 -2.7 L-196.68 -1.83 L-196.95 -0.93 L-197.16 0 L-197.16 127.66 L-197.16 127.66 L-196.98 128.6 L-196.72 129.51 L-196.4 130.39 L-196.01 131.24 L-195.56 132.05 L-195.04 132.81 L-194.47 133.54 L-193.85 134.21 L-193.18 134.84 L-192.45 135.41 L-191.69 135.92 L-190.88 136.38 L-190.03 136.77 L-189.15 137.1 L-188.23 137.35 L-187.29 137.54 L-9.87 137.54 L-9.87 137.54 L-8.93 137.35 L-8.02 137.1 L-7.14 136.77 L-6.3 136.38 L-5.49 135.93 L-4.72 135.42 L-4 134.85 L-3.32 134.23 L-2.7 133.55 L-2.13 132.83 L-1.61 132.06 L-1.16 131.25 L-0.77 130.41 L-0.44 129.52 L-0.18 128.61 L0 127.66 L0 0 L0 0" stroke="none" stroke-width="0" fill="#669df6" fill-rule="evenodd"></path><path d="M0 0 C0 0, 0 0, 0 0 M0 0 C0 0, 0 0, 0 0 M0 0 C-0.08 -0.35, -0.16 -0.69, -0.21 -0.93 M0 0 C-0.06 -0.25, -0.11 -0.5, -0.21 -0.93 M-0.21 -0.93 C-0.29 -1.21, -0.38 -1.49, -0.48 -1.82 M-0.21 -0.93 C-0.27 -1.14, -0.34 -1.35, -0.48 -1.82 M-0.48 -1.82 C-0.56 -2.02, -0.64 -2.22, -0.82 -2.69 M-0.48 -1.82 C-0.6 -2.13, -0.72 -2.43, -0.82 -2.69 M-0.82 -2.69 C-0.96 -2.97, -1.09 -3.25, -1.22 -3.53 M-0.82 -2.69 C-0.95 -2.96, -1.08 -3.22, -1.22 -3.53 M-1.22 -3.53 C-1.33 -3.72, -1.45 -3.91, -1.68 -4.32 M-1.22 -3.53 C-1.38 -3.8, -1.55 -4.08, -1.68 -4.32 M-1.68 -4.32 C-1.89 -4.62, -2.09 -4.93, -2.2 -5.08 M-1.68 -4.32 C-1.8 -4.5, -1.92 -4.68, -2.2 -5.08 M-2.2 -5.08 C-2.38 -5.31, -2.56 -5.53, -2.77 -5.8 M-2.2 -5.08 C-2.43 -5.36, -2.65 -5.65, -2.77 -5.8 M-2.77 -5.8 C-2.9 -5.93, -3.02 -6.07, -3.39 -6.47 M-2.77 -5.8 C-3.01 -6.05, -3.24 -6.31, -3.39 -6.47 M-3.39 -6.47 C-3.53 -6.59, -3.66 -6.72, -4.06 -7.09 M-3.39 -6.47 C-3.6 -6.66, -3.81 -6.86, -4.06 -7.09 M-4.06 -7.09 C-4.21 -7.21, -4.36 -7.33, -4.78 -7.66 M-4.06 -7.09 C-4.32 -7.3, -4.58 -7.5, -4.78 -7.66 M-4.78 -7.66 C-5.01 -7.83, -5.25 -7.99, -5.53 -8.18 M-4.78 -7.66 C-4.94 -7.78, -5.11 -7.89, -5.53 -8.18 M-5.53 -8.18 C-5.72 -8.29, -5.9 -8.39, -6.33 -8.64 M-5.53 -8.18 C-5.83 -8.35, -6.12 -8.52, -6.33 -8.64 M-6.33 -8.64 C-6.59 -8.77, -6.86 -8.9, -7.17 -9.05 M-6.33 -8.64 C-6.61 -8.78, -6.89 -8.91, -7.17 -9.05 M-7.17 -9.05 C-7.36 -9.12, -7.55 -9.2, -8.04 -9.39 M-7.17 -9.05 C-7.5 -9.18, -7.84 -9.31, -8.04 -9.39 M-8.04 -9.39 C-8.32 -9.48, -8.61 -9.56, -8.94 -9.66 M-8.04 -9.39 C-8.38 -9.49, -8.71 -9.6, -8.94 -9.66 M-8.94 -9.66 C-9.23 -9.73, -9.52 -9.79, -9.87 -9.87 M-8.94 -9.66 C-9.14 -9.71, -9.34 -9.75, -9.87 -9.87 M-9.87 -9.87 C-61.22 -9.87, -112.58 -9.87, -187.29 -9.87 M-9.87 -9.87 C-72.13 -9.87, -134.4 -9.87, -187.29 -9.87 M-187.29 -9.87 C-187.29 -9.87, -187.29 -9.87, -187.29 -9.87 M-187.29 -9.87 C-187.29 -9.87, -187.29 -9.87, -187.29 -9.87 M-187.29 -9.87 C-187.53 -9.82, -187.76 -9.77, -188.21 -9.66 M-187.29 -9.87 C-187.63 -9.8, -187.98 -9.72, -188.21 -9.66 M-188.21 -9.66 C-188.57 -9.56, -188.92 -9.45, -189.11 -9.39 M-188.21 -9.66 C-188.41 -9.6, -188.61 -9.54, -189.11 -9.39 M-189.11 -9.39 C-189.36 -9.29, -189.62 -9.19, -189.98 -9.05 M-189.11 -9.39 C-189.32 -9.31, -189.53 -9.22, -189.98 -9.05 M-189.98 -9.05 C-190.31 -8.89, -190.64 -8.73, -190.81 -8.65 M-189.98 -9.05 C-190.28 -8.9, -190.59 -8.76, -190.81 -8.65 M-190.81 -8.65 C-191.07 -8.5, -191.33 -8.35, -191.61 -8.19 M-190.81 -8.65 C-191.03 -8.53, -191.24 -8.4, -191.61 -8.19 M-191.61 -8.19 C-191.83 -8.04, -192.04 -7.89, -192.37 -7.67 M-191.61 -8.19 C-191.79 -8.07, -191.97 -7.94, -192.37 -7.67 M-192.37 -7.67 C-192.6 -7.48, -192.84 -7.3, -193.09 -7.1 M-192.37 -7.67 C-192.54 -7.53, -192.72 -7.39, -193.09 -7.1 M-193.09 -7.1 C-193.32 -6.88, -193.56 -6.66, -193.76 -6.48 M-193.09 -7.1 C-193.22 -6.97, -193.36 -6.84, -193.76 -6.48 M-193.76 -6.48 C-193.97 -6.25, -194.19 -6.02, -194.38 -5.81 M-193.76 -6.48 C-193.92 -6.3, -194.09 -6.12, -194.38 -5.81 M-194.38 -5.81 C-194.51 -5.65, -194.64 -5.48, -194.95 -5.1 M-194.38 -5.81 C-194.52 -5.63, -194.67 -5.45, -194.95 -5.1 M-194.95 -5.1 C-195.09 -4.9, -195.23 -4.69, -195.47 -4.34 M-194.95 -5.1 C-195.13 -4.84, -195.3 -4.59, -195.47 -4.34 M-195.47 -4.34 C-195.61 -4.09, -195.75 -3.85, -195.93 -3.54 M-195.47 -4.34 C-195.62 -4.08, -195.77 -3.81, -195.93 -3.54 M-195.93 -3.54 C-196.02 -3.36, -196.11 -3.17, -196.34 -2.7 M-195.93 -3.54 C-196.07 -3.26, -196.2 -2.98, -196.34 -2.7 M-196.34 -2.7 C-196.45 -2.42, -196.56 -2.14, -196.68 -1.83 M-196.34 -2.7 C-196.41 -2.52, -196.48 -2.34, -196.68 -1.83 M-196.68 -1.83 C-196.74 -1.64, -196.79 -1.45, -196.95 -0.93 M-196.68 -1.83 C-196.75 -1.61, -196.81 -1.38, -196.95 -0.93 M-196.95 -0.93 C-197.03 -0.58, -197.11 -0.22, -197.16 0 M-196.95 -0.93 C-197 -0.7, -197.06 -0.47, -197.16 0 M-197.16 0 C-197.16 35.58, -197.16 71.15, -197.16 127.66 M-197.16 0 C-197.16 46.92, -197.16 93.84, -197.16 127.66 M-197.16 127.66 C-197.16 127.66, -197.16 127.66, -197.16 127.66 M-197.16 127.66 C-197.16 127.66, -197.16 127.66, -197.16 127.66 M-197.16 127.66 C-197.1 127.97, -197.04 128.28, -196.98 128.6 M-197.16 127.66 C-197.11 127.92, -197.06 128.17, -196.98 128.6 M-196.98 128.6 C-196.89 128.92, -196.8 129.24, -196.72 129.51 M-196.98 128.6 C-196.92 128.82, -196.86 129.03, -196.72 129.51 M-196.72 129.51 C-196.62 129.78, -196.52 130.05, -196.4 130.39 M-196.72 129.51 C-196.65 129.72, -196.57 129.92, -196.4 130.39 M-196.4 130.39 C-196.31 130.58, -196.23 130.76, -196.01 131.24 M-196.4 130.39 C-196.29 130.64, -196.17 130.88, -196.01 131.24 M-196.01 131.24 C-195.91 131.42, -195.8 131.6, -195.56 132.05 M-196.01 131.24 C-195.91 131.42, -195.8 131.61, -195.56 132.05 M-195.56 132.05 C-195.44 132.23, -195.32 132.41, -195.04 132.81 M-195.56 132.05 C-195.4 132.29, -195.23 132.53, -195.04 132.81 M-195.04 132.81 C-194.85 133.06, -194.65 133.31, -194.47 133.54 M-195.04 132.81 C-194.85 133.05, -194.67 133.29, -194.47 133.54 M-194.47 133.54 C-194.31 133.71, -194.15 133.89, -193.85 134.21 M-194.47 133.54 C-194.32 133.71, -194.16 133.88, -193.85 134.21 M-193.85 134.21 C-193.6 134.44, -193.36 134.67, -193.18 134.84 M-193.85 134.21 C-193.64 134.4, -193.44 134.59, -193.18 134.84 M-193.18 134.84 C-192.95 135.01, -192.73 135.19, -192.45 135.41 M-193.18 134.84 C-193 134.98, -192.82 135.12, -192.45 135.41 M-192.45 135.41 C-192.25 135.55, -192.04 135.68, -191.69 135.92 M-192.45 135.41 C-192.28 135.52, -192.11 135.64, -191.69 135.92 M-191.69 135.92 C-191.4 136.08, -191.12 136.24, -190.88 136.38 M-191.69 135.92 C-191.49 136.03, -191.3 136.14, -190.88 136.38 M-190.88 136.38 C-190.66 136.48, -190.43 136.58, -190.03 136.77 M-190.88 136.38 C-190.68 136.47, -190.48 136.56, -190.03 136.77 M-190.03 136.77 C-189.76 136.87, -189.5 136.97, -189.15 137.1 M-190.03 136.77 C-189.71 136.89, -189.4 137, -189.15 137.1 M-189.15 137.1 C-188.95 137.15, -188.74 137.21, -188.23 137.35 M-189.15 137.1 C-188.95 137.15, -188.76 137.21, -188.23 137.35 M-188.23 137.35 C-188.01 137.4, -187.78 137.44, -187.29 137.54 M-188.23 137.35 C-187.91 137.42, -187.58 137.48, -187.29 137.54 M-187.29 137.54 C-138.66 137.54, -90.04 137.54, -9.87 137.54 M-187.29 137.54 C-133.37 137.54, -79.46 137.54, -9.87 137.54 M-9.87 137.54 C-9.87 137.54, -9.87 137.54, -9.87 137.54 M-9.87 137.54 C-9.87 137.54, -9.87 137.54, -9.87 137.54 M-9.87 137.54 C-9.5 137.46, -9.13 137.39, -8.93 137.35 M-9.87 137.54 C-9.53 137.47, -9.19 137.4, -8.93 137.35 M-8.93 137.35 C-8.64 137.27, -8.35 137.19, -8.02 137.1 M-8.93 137.35 C-8.74 137.3, -8.54 137.24, -8.02 137.1 M-8.02 137.1 C-7.83 137.03, -7.65 136.96, -7.14 136.77 M-8.02 137.1 C-7.72 136.99, -7.43 136.88, -7.14 136.77 M-7.14 136.77 C-6.82 136.63, -6.5 136.48, -6.3 136.38 M-7.14 136.77 C-6.85 136.64, -6.55 136.5, -6.3 136.38 M-6.3 136.38 C-6.12 136.29, -5.95 136.19, -5.49 135.93 M-6.3 136.38 C-6.07 136.26, -5.85 136.13, -5.49 135.93 M-5.49 135.93 C-5.3 135.8, -5.11 135.68, -4.72 135.42 M-5.49 135.93 C-5.3 135.81, -5.12 135.68, -4.72 135.42 M-4.72 135.42 C-4.48 135.22, -4.23 135.03, -4 134.85 M-4.72 135.42 C-4.49 135.23, -4.26 135.05, -4 134.85 M-4 134.85 C-3.76 134.62, -3.51 134.4, -3.32 134.23 M-4 134.85 C-3.85 134.71, -3.71 134.58, -3.32 134.23 M-3.32 134.23 C-3.09 133.97, -2.85 133.72, -2.7 133.55 M-3.32 134.23 C-3.13 134.01, -2.93 133.8, -2.7 133.55 M-2.7 133.55 C-2.52 133.32, -2.34 133.1, -2.13 132.83 M-2.7 133.55 C-2.48 133.28, -2.27 133.01, -2.13 132.83 M-2.13 132.83 C-1.94 132.55, -1.75 132.26, -1.61 132.06 M-2.13 132.83 C-1.93 132.53, -1.73 132.23, -1.61 132.06 M-1.61 132.06 C-1.5 131.86, -1.38 131.65, -1.16 131.25 M-1.61 132.06 C-1.5 131.87, -1.39 131.67, -1.16 131.25 M-1.16 131.25 C-1.07 131.07, -0.99 130.89, -0.77 130.41 M-1.16 131.25 C-1.01 130.93, -0.86 130.61, -0.77 130.41 M-0.77 130.41 C-0.68 130.17, -0.59 129.92, -0.44 129.52 M-0.77 130.41 C-0.66 130.13, -0.56 129.86, -0.44 129.52 M-0.44 129.52 C-0.37 129.29, -0.31 129.05, -0.18 128.61 M-0.44 129.52 C-0.38 129.32, -0.33 129.12, -0.18 128.61 M-0.18 128.61 C-0.14 128.39, -0.1 128.18, 0 127.66 M-0.18 128.61 C-0.13 128.33, -0.08 128.06, 0 127.66 M0 127.66 C0 88.16, 0 48.65, 0 0 M0 127.66 C0 84.53, 0 41.39, 0 0 M0 0 C0 0, 0 0, 0 0 M0 0 C0 0, 0 0, 0 0 M0 0 C0 0, 0 0, 0 0 M0 0 C0 0, 0 0, 0 0" stroke="#000000" stroke-width="1" fill="none"></path></g></g><mask></mask><g stroke-linecap="round"><g transform="translate(591.6283287985337 880.1179512648944) rotate(0 -78.85374373794758 -54.22637380561832)" fill-rule="evenodd"><path d="M0 0 L-157.71 0 L-157.71 -108.45 L0 -108.45 L0 0 L0 0" stroke="none" stroke-width="0" fill="#669df6" fill-rule="evenodd"></path><path d="M0 0 C-57.65 0, -115.3 0, -157.71 0 M0 0 C-43.29 0, -86.59 0, -157.71 0 M-157.71 0 C-157.71 -22.75, -157.71 -45.51, -157.71 -108.45 M-157.71 0 C-157.71 -30.91, -157.71 -61.81, -157.71 -108.45 M-157.71 -108.45 C-108.32 -108.45, -58.93 -108.45, 0 -108.45 M-157.71 -108.45 C-120.47 -108.45, -83.23 -108.45, 0 -108.45 M0 -108.45 C0 -75.46, 0 -42.47, 0 0 M0 -108.45 C0 -83.2, 0 -57.94, 0 0 M0 0 C0 0, 0 0, 0 0 M0 0 C0 0, 0 0, 0 0 M0 0 C0 0, 0 0, 0 0 M0 0 C0 0, 0 0, 0 0" stroke="#000000" stroke-width="1" fill="none"></path></g></g><mask></mask><g stroke-linecap="round"><g transform="translate(473.33883256498564 939.2449300851033) rotate(0 39.435744452282506 -4.93612591242686)" fill-rule="evenodd"><path d="M0 0 L0 0 L0.04 -1.23 L0.14 -2.38 L0.33 -3.44 L0.58 -4.42 L0.92 -5.31 L1.33 -6.12 L1.81 -6.85 L2.38 -7.49 L3.03 -8.06 L3.75 -8.55 L4.56 -8.96 L5.45 -9.29 L6.43 -9.55 L7.49 -9.73 L8.64 -9.84 L9.87 -9.87 L69 -9.87 L69 -9.87 L70.23 -9.84 L71.38 -9.73 L72.44 -9.55 L73.42 -9.29 L74.31 -8.96 L75.12 -8.55 L75.85 -8.06 L76.49 -7.49 L77.06 -6.85 L77.55 -6.12 L77.96 -5.31 L78.29 -4.42 L78.54 -3.44 L78.73 -2.38 L78.84 -1.23 L78.87 0 L0 0 L0 0" stroke="none" stroke-width="0" fill="#669df6" fill-rule="evenodd"></path><path d="M0 0 C0 0, 0 0, 0 0 M0 0 C0 0, 0 0, 0 0 M0 0 C0.01 -0.41, 0.02 -0.81, 0.04 -1.23 M0 0 C0.01 -0.4, 0.02 -0.8, 0.04 -1.23 M0.04 -1.23 C0.06 -1.54, 0.09 -1.84, 0.14 -2.38 M0.04 -1.23 C0.08 -1.69, 0.12 -2.15, 0.14 -2.38 M0.14 -2.38 C0.2 -2.68, 0.25 -2.97, 0.33 -3.44 M0.14 -2.38 C0.2 -2.72, 0.26 -3.06, 0.33 -3.44 M0.33 -3.44 C0.39 -3.66, 0.44 -3.89, 0.58 -4.42 M0.33 -3.44 C0.4 -3.74, 0.48 -4.03, 0.58 -4.42 M0.58 -4.42 C0.71 -4.74, 0.83 -5.07, 0.92 -5.31 M0.58 -4.42 C0.67 -4.66, 0.76 -4.9, 0.92 -5.31 M0.92 -5.31 C1.07 -5.61, 1.22 -5.9, 1.33 -6.12 M0.92 -5.31 C1.06 -5.59, 1.2 -5.86, 1.33 -6.12 M1.33 -6.12 C1.5 -6.38, 1.67 -6.63, 1.81 -6.85 M1.33 -6.12 C1.47 -6.33, 1.61 -6.54, 1.81 -6.85 M1.81 -6.85 C2.01 -7.07, 2.2 -7.29, 2.38 -7.49 M1.81 -6.85 C1.93 -6.98, 2.05 -7.12, 2.38 -7.49 M2.38 -7.49 C2.55 -7.64, 2.72 -7.79, 3.03 -8.06 M2.38 -7.49 C2.63 -7.72, 2.89 -7.94, 3.03 -8.06 M3.03 -8.06 C3.3 -8.24, 3.58 -8.43, 3.75 -8.55 M3.03 -8.06 C3.31 -8.25, 3.6 -8.44, 3.75 -8.55 M3.75 -8.55 C4.04 -8.69, 4.32 -8.83, 4.56 -8.96 M3.75 -8.55 C3.99 -8.67, 4.23 -8.79, 4.56 -8.96 M4.56 -8.96 C4.78 -9.04, 4.99 -9.12, 5.45 -9.29 M4.56 -8.96 C4.9 -9.08, 5.24 -9.21, 5.45 -9.29 M5.45 -9.29 C5.79 -9.38, 6.14 -9.47, 6.43 -9.55 M5.45 -9.29 C5.65 -9.34, 5.85 -9.39, 6.43 -9.55 M6.43 -9.55 C6.7 -9.59, 6.97 -9.64, 7.49 -9.73 M6.43 -9.55 C6.7 -9.59, 6.96 -9.64, 7.49 -9.73 M7.49 -9.73 C7.75 -9.75, 8.02 -9.78, 8.64 -9.84 M7.49 -9.73 C7.74 -9.75, 8 -9.78, 8.64 -9.84 M8.64 -9.84 C9 -9.85, 9.36 -9.86, 9.87 -9.87 M8.64 -9.84 C8.99 -9.85, 9.34 -9.86, 9.87 -9.87 M9.87 -9.87 C22.93 -9.87, 35.99 -9.87, 69 -9.87 M9.87 -9.87 C30.82 -9.87, 51.76 -9.87, 69 -9.87 M69 -9.87 C69 -9.87, 69 -9.87, 69 -9.87 M69 -9.87 C69 -9.87, 69 -9.87, 69 -9.87 M69 -9.87 C69.25 -9.86, 69.5 -9.86, 70.23 -9.84 M69 -9.87 C69.37 -9.86, 69.74 -9.85, 70.23 -9.84 M70.23 -9.84 C70.61 -9.8, 70.98 -9.77, 71.38 -9.73 M70.23 -9.84 C70.62 -9.8, 71.02 -9.76, 71.38 -9.73 M71.38 -9.73 C71.71 -9.67, 72.04 -9.62, 72.44 -9.55 M71.38 -9.73 C71.65 -9.68, 71.92 -9.63, 72.44 -9.55 M72.44 -9.55 C72.67 -9.49, 72.9 -9.43, 73.42 -9.29 M72.44 -9.55 C72.74 -9.47, 73.04 -9.39, 73.42 -9.29 M73.42 -9.29 C73.71 -9.18, 74 -9.07, 74.31 -8.96 M73.42 -9.29 C73.7 -9.18, 73.98 -9.08, 74.31 -8.96 M74.31 -8.96 C74.48 -8.87, 74.65 -8.79, 75.12 -8.55 M74.31 -8.96 C74.57 -8.83, 74.83 -8.69, 75.12 -8.55 M75.12 -8.55 C75.34 -8.4, 75.56 -8.25, 75.85 -8.06 M75.12 -8.55 C75.31 -8.42, 75.5 -8.29, 75.85 -8.06 M75.85 -8.06 C76.03 -7.9, 76.22 -7.73, 76.49 -7.49 M75.85 -8.06 C76 -7.92, 76.16 -7.78, 76.49 -7.49 M76.49 -7.49 C76.67 -7.29, 76.85 -7.08, 77.06 -6.85 M76.49 -7.49 C76.71 -7.24, 76.94 -6.99, 77.06 -6.85 M77.06 -6.85 C77.19 -6.65, 77.32 -6.46, 77.55 -6.12 M77.06 -6.85 C77.22 -6.6, 77.39 -6.35, 77.55 -6.12 M77.55 -6.12 C77.68 -5.85, 77.82 -5.58, 77.96 -5.31 M77.55 -6.12 C77.66 -5.89, 77.78 -5.66, 77.96 -5.31 M77.96 -5.31 C78.05 -5.05, 78.15 -4.78, 78.29 -4.42 M77.96 -5.31 C78.04 -5.07, 78.13 -4.84, 78.29 -4.42 M78.29 -4.42 C78.37 -4.09, 78.46 -3.76, 78.54 -3.44 M78.29 -4.42 C78.34 -4.2, 78.4 -3.99, 78.54 -3.44 M78.54 -3.44 C78.6 -3.15, 78.65 -2.86, 78.73 -2.38 M78.54 -3.44 C78.59 -3.15, 78.64 -2.86, 78.73 -2.38 M78.73 -2.38 C78.77 -1.93, 78.81 -1.48, 78.84 -1.23 M78.73 -2.38 C78.77 -1.95, 78.81 -1.51, 78.84 -1.23 M78.84 -1.23 C78.84 -0.91, 78.85 -0.59, 78.87 0 M78.84 -1.23 C78.84 -0.97, 78.85 -0.7, 78.87 0 M78.87 0 C47.65 0, 16.44 0, 0 0 M78.87 0 C60.52 0, 42.17 0, 0 0 M0 0 C0 0, 0 0, 0 0 M0 0 C0 0, 0 0, 0 0 M0 0 C0 0, 0 0, 0 0 M0 0 C0 0, 0 0, 0 0" stroke="#000000" stroke-width="1" fill="none"></path></g></g><mask></mask><g stroke-linecap="round"><g transform="translate(591.6283287985337 880.1179512648944) rotate(0 -78.85374373794758 -54.22637380561832)" fill-rule="evenodd"><path d="M0 0 L-157.71 0 L-157.71 -108.45 L0 -108.45 L0 0 L0 0" stroke="none" stroke-width="0" fill="#fff" fill-rule="evenodd"></path><path d="M0 0 C-37.9 0, -75.81 0, -157.71 0 M0 0 C-37.45 0, -74.89 0, -157.71 0 M-157.71 0 C-157.71 -27.98, -157.71 -55.97, -157.71 -108.45 M-157.71 0 C-157.71 -25.81, -157.71 -51.62, -157.71 -108.45 M-157.71 -108.45 C-124.64 -108.45, -91.57 -108.45, 0 -108.45 M-157.71 -108.45 C-123.86 -108.45, -90 -108.45, 0 -108.45 M0 -108.45 C0 -70.48, 0 -32.51, 0 0 M0 -108.45 C0 -86.5, 0 -64.54, 0 0 M0 0 C0 0, 0 0, 0 0 M0 0 C0 0, 0 0, 0 0 M0 0 C0 0, 0 0, 0 0 M0 0 C0 0, 0 0, 0 0" stroke="#000000" stroke-width="1" fill="none"></path></g></g><mask></mask><g stroke-linecap="round"><g transform="translate(581.7560641043714 829.2296780040353) rotate(0 -26.367441892098327 -11.434773989976065)" fill-rule="evenodd"><path d="M0 0 L-42.76 -42.69 L-52.73 -32.71 L0 19.82 L0 0" stroke="none" stroke-width="0" fill="#669df6" fill-rule="evenodd"></path><path d="M0 0 C-11.93 -11.91, -23.85 -23.81, -42.76 -42.69 M0 0 C-16.2 -16.18, -32.41 -32.36, -42.76 -42.69 M-42.76 -42.69 C-45.71 -39.73, -48.66 -36.78, -52.73 -32.71 M-42.76 -42.69 C-46.55 -38.89, -50.34 -35.1, -52.73 -32.71 M-52.73 -32.71 C-37.37 -17.41, -22.01 -2.11, 0 19.82 M-52.73 -32.71 C-39.86 -19.89, -26.99 -7.07, 0 19.82 M0 19.82 C0 12.77, 0 5.73, 0 0 M0 19.82 C0 13.88, 0 7.95, 0 0 M0 0 C0 0, 0 0, 0 0 M0 0 C0 0, 0 0, 0 0" stroke="#000000" stroke-width="1" fill="none"></path></g></g><mask></mask><g stroke-linecap="round"><g transform="translate(548.943254677153 816.3389236298347) rotate(0 -9.961037178489278 -14.897158264925565)" fill-rule="evenodd"><path d="M0 0 L-19.92 -19.82 L-9.94 -29.79 L0 -19.82 L0 0" stroke="none" stroke-width="0" fill="#4285f4" fill-rule="evenodd"></path><path d="M0 0 C-4.17 -4.15, -8.35 -8.3, -19.92 -19.82 M0 0 C-7.67 -7.62, -15.33 -15.25, -19.92 -19.82 M-19.92 -19.82 C-16.92 -22.82, -13.91 -25.82, -9.94 -29.79 M-19.92 -19.82 C-17 -22.74, -14.07 -25.67, -9.94 -29.79 M-9.94 -29.79 C-6.5 -26.34, -3.06 -22.89, 0 -19.82 M-9.94 -29.79 C-7.89 -27.74, -5.84 -25.68, 0 -19.82 M0 -19.82 C0 -12.87, 0 -5.93, 0 0 M0 -19.82 C0 -12.6, 0 -5.39, 0 0 M0 0 C0 0, 0 0, 0 0 M0 0 C0 0, 0 0, 0 0" stroke="#000000" stroke-width="1" fill="none"></path></g></g><mask></mask><g stroke-linecap="round"><g transform="translate(502.31637596208463 843.0437279879254) rotate(0 18.341803807911504 -28.249560443971177)" fill-rule="evenodd"><path d="M0 0 L-9.94 -9.94 L36.68 -56.5 L46.63 -46.52 L0 0" stroke="none" stroke-width="0" fill="#aecbfa" fill-rule="evenodd"></path><path d="M0 0 C-3.81 -3.81, -7.62 -7.62, -9.94 -9.94 M0 0 C-2.13 -2.13, -4.26 -4.26, -9.94 -9.94 M-9.94 -9.94 C3.58 -23.45, 17.1 -36.95, 36.68 -56.5 M-9.94 -9.94 C0.57 -20.44, 11.08 -30.93, 36.68 -56.5 M36.68 -56.5 C39.65 -53.52, 42.62 -50.54, 46.63 -46.52 M36.68 -56.5 C39.6 -53.57, 42.52 -50.64, 46.63 -46.52 M46.63 -46.52 C36.74 -36.65, 26.85 -26.78, 0 0 M46.63 -46.52 C28.48 -28.41, 10.33 -10.31, 0 0 M0 0 C0 0, 0 0, 0 0 M0 0 C0 0, 0 0, 0 0" stroke="#000000" stroke-width="1" fill="none"></path></g></g><mask></mask><g stroke-linecap="round"><g transform="translate(502.3163759620842 843.0437279879245) rotate(0 -9.126504401147486 -19.03427551517848)" fill-rule="evenodd"><path d="M0 0 L-28.2 -28.09 L-18.15 -38.07 L9.94 -9.94 L0 0" stroke="none" stroke-width="0" fill="#669df6" fill-rule="evenodd"></path><path d="M0 0 C-10.45 -10.41, -20.89 -20.82, -28.2 -28.09 M0 0 C-7.52 -7.49, -15.03 -14.98, -28.2 -28.09 M-28.2 -28.09 C-25.9 -30.37, -23.6 -32.66, -18.15 -38.07 M-28.2 -28.09 C-25.85 -30.42, -23.5 -32.75, -18.15 -38.07 M-18.15 -38.07 C-8.19 -28.1, 1.76 -18.13, 9.94 -9.94 M-18.15 -38.07 C-10.38 -30.29, -2.61 -22.51, 9.94 -9.94 M9.94 -9.94 C7.66 -7.66, 5.38 -5.38, 0 0 M9.94 -9.94 C6.8 -6.8, 3.67 -3.67, 0 0 M0 0 C0 0, 0 0, 0 0 M0 0 C0 0, 0 0, 0 0" stroke="#000000" stroke-width="1" fill="none"></path></g></g><mask></mask><g stroke-linecap="round"><g transform="translate(493.8290868557259 834.5564324469126) rotate(0 -9.854498614918668 -14.790627744672292)" fill-rule="evenodd"><path d="M0 0 L-19.71 -19.6 L-9.66 -29.58 L0 -19.92 L0 0" stroke="none" stroke-width="0" fill="#4285f4" fill-rule="evenodd"></path><path d="M0 0 C-6.98 -6.95, -13.97 -13.89, -19.71 -19.6 M0 0 C-5.69 -5.66, -11.38 -11.32, -19.71 -19.6 M-19.71 -19.6 C-17.42 -21.87, -15.14 -24.14, -9.66 -29.58 M-19.71 -19.6 C-16.79 -22.5, -13.88 -25.39, -9.66 -29.58 M-9.66 -29.58 C-5.85 -25.77, -2.03 -21.95, 0 -19.92 M-9.66 -29.58 C-7.63 -27.56, -5.61 -25.53, 0 -19.92 M0 -19.92 C0 -13.98, 0 -8.04, 0 0 M0 -19.92 C0 -13.22, 0 -6.53, 0 0 M0 0 C0 0, 0 0, 0 0 M0 0 C0 0, 0 0, 0 0" stroke="#000000" stroke-width="1" fill="none"></path></g></g><mask></mask><g stroke-linecap="round"><g transform="translate(448.090010199782 860.3024219061465) rotate(0 20.703324983227333 -27.80566745772512)" fill-rule="evenodd"><path d="M0 0 L45.74 -45.67 L35.8 -55.61 L-4.33 -15.59 L-4.33 0 L0 0" stroke="none" stroke-width="0" fill="#aecbfa" fill-rule="evenodd"></path><path d="M0 0 C14.83 -14.81, 29.66 -29.62, 45.74 -45.67 M0 0 C12.8 -12.78, 25.59 -25.55, 45.74 -45.67 M45.74 -45.67 C42.42 -48.99, 39.1 -52.31, 35.8 -55.61 M45.74 -45.67 C41.87 -49.53, 38.01 -53.4, 35.8 -55.61 M35.8 -55.61 C20.96 -40.82, 6.13 -26.02, -4.33 -15.59 M35.8 -55.61 C22.23 -42.08, 8.65 -28.54, -4.33 -15.59 M-4.33 -15.59 C-4.33 -10.69, -4.33 -5.79, -4.33 0 M-4.33 -15.59 C-4.33 -12.42, -4.33 -9.26, -4.33 0 M-4.33 0 C-3.17 0, -2.02 0, 0 0 M-4.33 0 C-2.81 0, -1.28 0, 0 0 M0 0 C0 0, 0 0, 0 0 M0 0 C0 0, 0 0, 0 0" stroke="#000000" stroke-width="1" fill="none"></path></g></g><mask></mask><g transform="translate(442.89747312811255 946.6973530804869) rotate(0 71.11305236816406 19)"><text x="71.11305236816406" y="0" font-family="Helvetica, Segoe UI Emoji" font-size="33.67369375483576px" fill="#000000" text-anchor="middle" style="white-space: pre;" direction="ltr" dominant-baseline="text-before-edge">Task host</text></g><g stroke-linecap="round" transform="translate(1136.7080323314717 789.0348549981284) rotate(0 66.04247737203437 42.53237042164983)"><path d="M1.81 0.58 C34 -2.41, 70.97 -2.88, 130.97 0.92 M-0.15 0.65 C48.13 0.12, 97.61 -0.37, 132.52 -0.05 M130.69 0.34 C131.38 26.91, 132.8 55.72, 130.7 85.31 M132.51 -0.77 C131.43 28.87, 132.69 59.34, 131.12 85.75 M133.22 84.76 C100.53 85.61, 65.34 83.95, 0.67 83.2 M131.18 84.82 C88.79 84.59, 45.8 85.88, -0.04 85.54 M1.5 83.38 C-0.92 63, -1.17 43, -1 -1.53 M-0.51 84.52 C-0.22 64.66, -0.69 43.03, -0.25 0.08" stroke="#000000" stroke-width="1" fill="none"></path></g><g stroke-linecap="round"><g transform="translate(1140.6493445703782 867.906371989656) rotate(0 60.267610282136104 -25.1516778457069)" fill-rule="evenodd"><path d="M1.58 0.59 L40.13 -36.87 L62.25 -22.54 L95.57 -52.22 L119.17 4.19 L0.88 0.63" stroke="none" stroke-width="0" fill="black" fill-rule="evenodd"></path><path d="M-1.9 -1.13 C15.48 -16.47, 31.83 -28.68, 43.24 -38.61 M-0.24 0.59 C15 -12.64, 28.66 -25.27, 42.15 -37.51 M41.53 -37.74 C47.82 -33.06, 50.39 -30.08, 62.64 -23.79 M41.35 -38.11 C50.17 -32.17, 56.03 -25.97, 61.11 -23.81 M62.92 -23.38 C71.27 -34.77, 83.84 -44.97, 95.47 -54.17 M61.28 -23.98 C71.33 -31.45, 81.48 -40.71, 94.49 -53.05 M94.54 -54.28 C102.49 -35.77, 109.94 -21.15, 119.69 3.29 M95.14 -53.05 C104.03 -32.57, 113.75 -11.45, 120.3 2.65 M122.44 3.98 C74.86 -0.49, 24.65 -0.21, -0.1 -1.36 M121.15 1.62 C92.88 2.23, 64.36 -0.01, 0.69 0.94 M0 0 C0 0, 0 0, 0 0 M0 0 C0 0, 0 0, 0 0" stroke="#000000" stroke-width="1" fill="none"></path></g></g><mask></mask><g stroke-linecap="round" transform="translate(1152.0359786000392 801.2045339650365) rotate(0 9.916572048078422 9.916572048078478)"><path d="M10.29 0.02 C12.35 -0.21, 15.36 0.08, 16.89 1.35 C18.41 2.63, 19.2 5.38, 19.43 7.67 C19.66 9.96, 19.34 13.28, 18.27 15.07 C17.19 16.86, 15.01 17.62, 12.99 18.4 C10.98 19.18, 7.98 20.4, 6.18 19.75 C4.38 19.11, 3.28 16.4, 2.18 14.54 C1.07 12.67, -0.73 10.62, -0.43 8.56 C-0.13 6.49, 1.97 3.58, 3.97 2.14 C5.97 0.7, 9.98 0.19, 11.57 -0.1 C13.16 -0.39, 13.48 0.05, 13.5 0.4 M12.97 1.09 C15.03 0.9, 15.65 0.75, 16.81 2.24 C17.98 3.72, 20.02 7.78, 19.95 9.99 C19.89 12.19, 17.6 13.92, 16.4 15.45 C15.21 16.97, 14.62 18.83, 12.79 19.14 C10.96 19.45, 7.29 18.07, 5.43 17.3 C3.57 16.52, 2.23 16.49, 1.62 14.47 C1.01 12.45, 1.03 7.15, 1.78 5.18 C2.53 3.22, 4.21 3.32, 6.11 2.67 C8.01 2.03, 12.42 1.9, 13.19 1.31 C13.95 0.72, 10.97 -0.98, 10.69 -0.88" stroke="none" stroke-width="0" fill="black"></path><path d="M6.71 0.05 C8.68 -0.96, 11.16 -0.42, 13.18 0.29 C15.21 0.99, 17.7 2.33, 18.89 4.28 C20.08 6.23, 20.7 9.77, 20.35 12 C20 14.22, 18.44 16.27, 16.78 17.61 C15.12 18.96, 12.58 20.1, 10.38 20.05 C8.18 20.01, 5.37 18.64, 3.56 17.35 C1.76 16.06, 0 14.35, -0.45 12.31 C-0.89 10.27, -0.4 7.02, 0.89 5.11 C2.18 3.2, 6.3 1.6, 7.3 0.85 C8.3 0.1, 6.84 0.52, 6.89 0.61 M12.98 -0.66 C14.95 0.12, 18.95 2.61, 19.8 4.92 C20.66 7.23, 18.91 11.11, 18.13 13.21 C17.34 15.31, 16.48 16.28, 15.08 17.52 C13.69 18.76, 11.77 20.57, 9.74 20.67 C7.71 20.76, 4.48 19.84, 2.9 18.11 C1.31 16.38, 0.62 12.49, 0.22 10.3 C-0.17 8.11, -0.38 6.57, 0.53 4.99 C1.43 3.4, 3.51 1.51, 5.65 0.8 C7.8 0.09, 12.3 0.75, 13.42 0.72 C14.54 0.69, 12.48 0.55, 12.39 0.62" stroke="#000000" stroke-width="1" fill="none"></path></g><g transform="translate(1282.6254354058042 915.4395013627079) rotate(0 55.50371551513672 31.060989683640855)"><text x="0" y="0" font-family="Virgil, Segoe UI Emoji" font-size="49.69758349382539px" fill="#000000" text-anchor="start" style="white-space: pre;" direction="ltr" dominant-baseline="text-before-edge">User</text></g><g stroke-linecap="round"><g transform="translate(1275.6995288610588 891.453146545676) rotate(0 64.1586986619301 -54.159679361302096)" fill-rule="evenodd"><path d="M22.48 -85.13 C22.48 -85.13, 22.48 -85.13, 22.48 -85.13 M22.48 -85.13 C22.48 -85.13, 22.48 -85.13, 22.48 -85.13 M12.77 -61.77 C22.08 -72.48, 31.39 -83.19, 48.86 -103.28 M12.77 -61.77 C21.11 -71.37, 29.46 -80.96, 48.86 -103.28 M13.56 -50.49 C27.49 -66.51, 41.41 -82.53, 62.11 -106.33 M13.56 -50.49 C26.5 -65.37, 39.43 -80.25, 62.11 -106.33 M7.13 -30.9 C20.52 -46.29, 33.9 -61.68, 72.08 -105.61 M7.13 -30.9 C27.34 -54.15, 47.55 -77.4, 72.08 -105.61 M5.3 -16.59 C23.56 -37.6, 41.82 -58.6, 80.09 -102.63 M5.3 -16.59 C25.51 -39.84, 45.72 -63.09, 80.09 -102.63 M0.84 0.73 C26.25 -28.5, 51.65 -57.72, 86.78 -98.14 M0.84 0.73 C25.94 -28.14, 51.04 -57.02, 86.78 -98.14 M11.47 0.7 C40.1 -32.24, 68.73 -65.18, 92.82 -92.89 M11.47 0.7 C30.79 -21.53, 50.11 -43.75, 92.82 -92.89 M22.1 0.66 C47.66 -28.74, 73.21 -58.13, 98.86 -87.64 M22.1 0.66 C48.83 -30.09, 75.56 -60.84, 98.86 -87.64 M32.73 0.63 C55.47 -25.53, 78.2 -51.68, 104.24 -81.64 M32.73 0.63 C55.33 -25.37, 77.93 -51.37, 104.24 -81.64 M43.36 0.59 C68.35 -28.16, 93.34 -56.91, 109.62 -75.63 M43.36 0.59 C66.62 -26.16, 89.87 -52.91, 109.62 -75.63 M53.33 1.31 C65.58 -12.77, 77.82 -26.86, 113.69 -68.12 M53.33 1.31 C68.46 -16.08, 83.58 -33.48, 113.69 -68.12 M63.96 1.28 C82.07 -19.55, 100.17 -40.37, 117.11 -59.85 M63.96 1.28 C78.22 -15.13, 92.48 -31.53, 117.11 -59.85 M74.59 1.24 C84.88 -10.58, 95.16 -22.41, 121.18 -52.34 M74.59 1.24 C92.42 -19.26, 110.24 -39.76, 121.18 -52.34 M83.91 2.72 C99.73 -15.48, 115.55 -33.68, 124.59 -44.07 M83.91 2.72 C98.77 -14.38, 113.63 -31.47, 124.59 -44.07 M95.2 1.93 C106.75 -11.35, 118.29 -24.64, 129.31 -37.32 M95.2 1.93 C103.75 -7.91, 112.3 -17.74, 129.31 -37.32 M104.52 3.4 C113.68 -7.13, 122.84 -17.67, 131.42 -27.54 M104.52 3.4 C110 -2.9, 115.48 -9.21, 131.42 -27.54 M0 0 C0 0, 0 0, 0 0 M0 0 C0 0, 0 0, 0 0 M12.04 -0.13 C9.22 -2.59, 6.39 -5.04, 1.47 -9.32 M12.04 -0.13 C9.48 -2.36, 6.92 -4.59, 1.47 -9.32 M24.84 0.39 C17.87 -5.66, 10.91 -11.71, 2.2 -19.29 M24.84 0.39 C17.31 -6.16, 9.77 -12.7, 2.2 -19.29 M36.88 0.26 C27.11 -8.23, 17.35 -16.72, 3.67 -28.61 M36.88 0.26 C29 -6.59, 21.13 -13.43, 3.67 -28.61 M48.92 0.12 C37.99 -9.37, 27.07 -18.87, 6.65 -36.62 M48.92 0.12 C40.14 -7.51, 31.35 -15.15, 6.65 -36.62 M60.96 -0.01 C39.9 -18.31, 18.84 -36.62, 8.13 -45.93 M60.96 -0.01 C48.28 -11.03, 35.6 -22.06, 8.13 -45.93 M73.75 0.51 C53.71 -16.91, 33.66 -34.34, 8.85 -55.91 M73.75 0.51 C51.59 -18.75, 29.43 -38.01, 8.85 -55.91 M83.53 -1.59 C68.16 -14.95, 52.78 -28.32, 11.08 -64.57 M83.53 -1.59 C68.99 -14.23, 54.45 -26.86, 11.08 -64.57 M94.82 -2.38 C63.23 -29.84, 31.64 -57.3, 14.06 -72.58 M94.82 -2.38 C74.12 -20.37, 53.43 -38.35, 14.06 -72.58 M103.08 -5.79 C84.57 -21.89, 66.05 -37.99, 18.56 -79.27 M103.08 -5.79 C72.21 -32.63, 41.34 -59.46, 18.56 -79.27 M115.13 -5.92 C79.09 -37.25, 43.06 -68.57, 23.05 -85.96 M115.13 -5.92 C90.08 -27.69, 65.04 -49.46, 23.05 -85.96 M123.39 -9.34 C89.75 -38.58, 56.11 -67.82, 29.05 -91.34 M123.39 -9.34 C97.27 -32.04, 71.15 -54.75, 29.05 -91.34 M128.64 -15.37 C95.8 -43.93, 62.95 -72.48, 34.3 -97.38 M128.64 -15.37 C99.85 -40.4, 71.07 -65.42, 34.3 -97.38 M130.12 -24.69 C110.95 -41.35, 91.79 -58.01, 41.06 -102.11 M130.12 -24.69 C96.67 -53.77, 63.22 -82.84, 41.06 -102.11 M130.08 -35.32 C109.21 -53.47, 88.33 -71.62, 47.82 -106.83 M130.08 -35.32 C107.94 -54.57, 85.79 -73.83, 47.82 -106.83 M127.78 -47.92 C110.87 -62.63, 93.95 -77.33, 56.84 -109.59 M127.78 -47.92 C99.54 -72.48, 71.29 -97.03, 56.84 -109.59 M109.64 -74.3 C99.89 -82.77, 90.14 -91.25, 71.15 -107.76 M109.64 -74.3 C99.07 -83.48, 88.51 -92.66, 71.15 -107.76" stroke="#ced4da" stroke-width="1" fill="none"></path><path d="M0 0 C2.29 -12.04, 3.92 -54.07, 13.71 -72.24 C23.51 -90.41, 43.75 -107.71, 58.77 -109.02 C73.78 -110.33, 93.21 -97.04, 103.82 -80.12 C114.43 -63.2, 139.73 -20.86, 122.43 -7.5 C105.13 5.85, 20.4 -1.25, 0 0 M0 0 C2.29 -12.04, 3.92 -54.07, 13.71 -72.24 C23.51 -90.41, 43.75 -107.71, 58.77 -109.02 C73.78 -110.33, 93.21 -97.04, 103.82 -80.12 C114.43 -63.2, 139.73 -20.86, 122.43 -7.5 C105.13 5.85, 20.4 -1.25, 0 0" stroke="#000000" stroke-width="2" fill="none"></path></g></g><mask></mask><g stroke-linecap="round" transform="translate(1306.6458931465145 725.7339507642612) rotate(0 31.34171071785024 27.423996878118942)"><path d="M7.06 10.11 C7.06 10.11, 7.06 10.11, 7.06 10.11 M7.06 10.11 C7.06 10.11, 7.06 10.11, 7.06 10.11 M1.29 28.94 C7.83 21.42, 14.36 13.9, 26.22 0.27 M1.29 28.94 C8.98 20.09, 16.67 11.25, 26.22 0.27 M3.39 38.72 C11.39 29.52, 19.39 20.32, 34.88 2.5 M3.39 38.72 C12.87 27.82, 22.34 16.91, 34.88 2.5 M8.11 45.48 C17.47 34.71, 26.83 23.95, 44.2 3.97 M8.11 45.48 C20.03 31.77, 31.95 18.06, 44.2 3.97 M14.15 50.73 C27.97 34.83, 41.8 18.93, 52.2 6.95 M14.15 50.73 C25.73 37.41, 37.31 24.09, 52.2 6.95 M21.5 54.47 C30.61 43.99, 39.72 33.51, 58.24 12.2 M21.5 54.47 C34.11 39.96, 46.72 25.46, 58.24 12.2 M31.48 55.19 C38.37 47.25, 45.27 39.31, 62.31 19.72 M31.48 55.19 C39.13 46.38, 46.78 37.58, 62.31 19.72 M42.76 54.4 C48.41 47.9, 54.05 41.41, 64.41 29.49 M42.76 54.4 C50.78 45.18, 58.79 35.96, 64.41 29.49 M11.03 48.29 C11.03 48.29, 11.03 48.29, 11.03 48.29 M11.03 48.29 C11.03 48.29, 11.03 48.29, 11.03 48.29 M27.6 52.09 C20.32 45.77, 13.05 39.44, 1.94 29.78 M27.6 52.09 C21.67 46.94, 15.75 41.79, 1.94 29.78 M38.88 51.3 C24.81 39.07, 10.74 26.84, 2.66 19.81 M38.88 51.3 C30.21 43.76, 21.55 36.23, 2.66 19.81 M48.66 49.2 C37.68 39.66, 26.71 30.12, 5.64 11.8 M48.66 49.2 C33.96 36.42, 19.25 23.64, 5.64 11.8 M55.42 44.47 C45.77 36.09, 36.12 27.7, 11.64 6.42 M55.42 44.47 C43.61 34.21, 31.81 23.95, 11.64 6.42 M60.67 38.43 C49.15 28.42, 37.63 18.41, 17.65 1.04 M60.67 38.43 C47.05 26.6, 33.44 14.77, 17.65 1.04 M63.65 30.43 C54.26 22.26, 44.87 14.1, 27.42 -1.06 M63.65 30.43 C56.16 23.92, 48.67 17.41, 27.42 -1.06 M61.35 17.83 C54.44 11.82, 47.52 5.81, 42.48 1.43 M61.35 17.83 C54.46 11.84, 47.58 5.86, 42.48 1.43" stroke="#ced4da" stroke-width="1" fill="none"></path><path d="M62.68 27.42 C62.68 29.01, 62.52 30.62, 62.21 32.19 C61.89 33.75, 61.41 35.31, 60.79 36.8 C60.17 38.3, 59.39 39.76, 58.48 41.14 C57.58 42.51, 56.52 43.84, 55.35 45.05 C54.18 46.27, 52.88 47.41, 51.49 48.43 C50.1 49.45, 48.58 50.38, 47.01 51.17 C45.44 51.97, 43.77 52.65, 42.06 53.19 C40.36 53.74, 38.57 54.16, 36.78 54.43 C35 54.71, 33.16 54.85, 31.34 54.85 C29.53 54.85, 27.69 54.71, 25.9 54.43 C24.11 54.16, 22.33 53.74, 20.62 53.19 C18.92 52.65, 17.24 51.97, 15.67 51.17 C14.1 50.38, 12.59 49.45, 11.2 48.43 C9.81 47.41, 8.5 46.27, 7.33 45.05 C6.17 43.84, 5.11 42.51, 4.2 41.14 C3.29 39.76, 2.51 38.3, 1.89 36.8 C1.27 35.31, 0.79 33.75, 0.48 32.19 C0.16 30.62, 0 29.01, 0 27.42 C0 25.84, 0.16 24.23, 0.48 22.66 C0.79 21.1, 1.27 19.54, 1.89 18.04 C2.51 16.55, 3.29 15.09, 4.2 13.71 C5.11 12.34, 6.17 11.01, 7.33 9.8 C8.5 8.58, 9.81 7.44, 11.2 6.42 C12.59 5.4, 14.1 4.47, 15.67 3.67 C17.24 2.88, 18.92 2.2, 20.62 1.65 C22.33 1.11, 24.11 0.69, 25.9 0.42 C27.69 0.14, 29.53 0, 31.34 0 C33.16 0, 35 0.14, 36.78 0.42 C38.57 0.69, 40.36 1.11, 42.06 1.65 C43.77 2.2, 45.44 2.88, 47.01 3.67 C48.58 4.47, 50.1 5.4, 51.49 6.42 C52.88 7.44, 54.18 8.58, 55.35 9.8 C56.52 11.01, 57.58 12.34, 58.48 13.71 C59.39 15.09, 60.17 16.55, 60.79 18.04 C61.41 19.54, 61.89 21.1, 62.21 22.66 C62.52 24.23, 62.6 26.63, 62.68 27.42 C62.76 28.22, 62.76 26.63, 62.68 27.42" stroke="#000000" stroke-width="2" fill="none"></path></g><g stroke-linecap="round"><g transform="translate(1127.745165696195 801.625609892036) rotate(0 -257.22211482885655 -28.25296283740522)"><path d="M0.12 1.31 C-41.9 -9.67, -167.74 -68.15, -253.53 -67.11 C-339.31 -66.06, -471.83 -4.74, -514.57 7.59 M-3.26 -0.45 C-44.26 -11.08, -163.86 -66.8, -248.15 -64.96 C-332.45 -63.11, -465.7 -1.71, -509.02 10.61" stroke="#364fc7" stroke-width="1" fill="none"></path></g><g transform="translate(1127.745165696195 801.625609892036) rotate(0 -257.22211482885655 -28.25296283740522)"><path d="M-484.1 -11.29 C-495.81 -7.14, -497.92 4.29, -510.28 11.01 M-486.33 -9.6 C-493.52 -1.99, -502.07 4.16, -510.7 11.78" stroke="#364fc7" stroke-width="1" fill="none"></path></g><g transform="translate(1127.745165696195 801.625609892036) rotate(0 -257.22211482885655 -28.25296283740522)"><path d="M-477.15 8.02 C-490.43 7.34, -494.28 13.93, -510.28 11.01 M-479.38 9.71 C-489.1 10.72, -500.02 10.3, -510.7 11.78" stroke="#364fc7" stroke-width="1" fill="none"></path></g></g><mask></mask><g stroke-linecap="round"><g transform="translate(621.1249613567786 908.8757706215304) rotate(0 47.92604683300084 32.4716836357818)"><path d="M-0.96 0.33 C15.16 10.68, 80.51 52.84, 96.82 63.1 M3.71 -1.96 C19.66 8.81, 80.36 55.83, 95.8 66.9" stroke="#364fc7" stroke-width="1" fill="none"></path></g><g transform="translate(621.1249613567786 908.8757706215304) rotate(0 47.92604683300084 32.4716836357818)"><path d="M67.55 61.44 C76.28 64.35, 83.18 66.64, 98.5 68.09 M65.49 58.72 C72.78 61.62, 81.91 63.3, 94.61 65.83" stroke="#364fc7" stroke-width="1" fill="none"></path></g><g transform="translate(621.1249613567786 908.8757706215304) rotate(0 47.92604683300084 32.4716836357818)"><path d="M79.85 45.01 C84.98 52.79, 88.18 60.04, 98.5 68.09 M77.79 42.29 C82.34 49.53, 88.4 55.3, 94.61 65.83" stroke="#364fc7" stroke-width="1" fill="none"></path></g></g><mask></mask><g stroke-linecap="round"><g transform="translate(608.6843125692833 803.5001130539356) rotate(0 29.171459143847983 -204.83877422565)"><path d="M-0.95 -0.46 C12.83 -31.1, 85.57 -115.92, 81.84 -184.04 C78.11 -252.17, -5.58 -371.78, -23.31 -409.22 M0.76 -1.75 C14.44 -32.24, 84.92 -115.23, 80.86 -182.94 C76.79 -250.65, -6.09 -370.6, -23.64 -408" stroke="#364fc7" stroke-width="1" fill="none"></path></g><g transform="translate(608.6843125692833 803.5001130539356) rotate(0 29.171459143847983 -204.83877422565)"><path d="M-1.61 -388.61 C-7.47 -391.82, -11.72 -398.34, -23.02 -407.6 M-1.55 -388.25 C-4.97 -393.55, -11.09 -396.61, -22.82 -407.72" stroke="#364fc7" stroke-width="1" fill="none"></path></g><g transform="translate(608.6843125692833 803.5001130539356) rotate(0 29.171459143847983 -204.83877422565)"><path d="M-19.48 -378.52 C-21.17 -383.93, -21.27 -392.79, -23.02 -407.6 M-19.42 -378.16 C-19.07 -385.44, -21.38 -390.65, -22.82 -407.72" stroke="#364fc7" stroke-width="1" fill="none"></path></g></g><mask></mask><g stroke-linecap="round"><g transform="translate(430.0181031245463 397.25408923578993) rotate(0 -50.08630392276757 213.26544785551118)"><path d="M2.36 -1.5 C-14.15 56.98, -95.29 281.16, -99.59 352.48 C-103.89 423.79, -36.32 413.76, -23.43 426.4 M0.19 3.85 C-16.74 61.36, -99.42 277.5, -102.44 348.2 C-105.46 418.9, -31.26 414.32, -17.91 428.04" stroke="#364fc7" stroke-width="1" fill="none"></path></g><g transform="translate(430.0181031245463 397.25408923578993) rotate(0 -50.08630392276757 213.26544785551118)"><path d="M-50.04 425.43 C-37.55 423.36, -34.96 425.36, -19.04 424.35 M-45.96 425.5 C-38.58 427.99, -27.13 427.86, -17.91 430.01" stroke="#364fc7" stroke-width="1" fill="none"></path></g><g transform="translate(430.0181031245463 397.25408923578993) rotate(0 -50.08630392276757 213.26544785551118)"><path d="M-42.39 406.39 C-31.83 409.78, -31.39 417.11, -19.04 424.35 M-38.31 406.46 C-33.81 415.11, -24.86 421.23, -17.91 430.01" stroke="#364fc7" stroke-width="1" fill="none"></path></g></g><mask></mask><g transform="translate(698.9882922477029 607.5495014547093) rotate(0 174.63592529296875 17.5)"><text x="0" y="0" font-family="Virgil, Segoe UI Emoji" font-size="28px" fill="#364fc7" text-anchor="start" style="white-space: pre;" direction="ltr" dominant-baseline="text-before-edge">Upload (Request caption)</text></g><g transform="translate(211.23468632352024 637.5613178253022) rotate(0 126.30794525146484 17.5)"><text x="0" y="0" font-family="Virgil, Segoe UI Emoji" font-size="28px" fill="#364fc7" text-anchor="start" style="white-space: pre;" direction="ltr" dominant-baseline="text-before-edge">Get (Get caption)</text></g><g stroke-linecap="round"><g transform="translate(627.0762987497164 848.8244226905397) rotate(0 241.55813081367995 26.57621703190398)"><path d="M-0.1 -1.05 C42.44 7.9, 174.52 53.01, 255.32 54.17 C336.13 55.34, 446.58 13.74, 484.73 5.96 M-1.61 1.02 C40.86 9.6, 173.92 51.65, 254.94 52.62 C335.97 53.6, 446.25 14.75, 484.55 6.87" stroke="#364fc7" stroke-width="1" fill="none"></path></g><g transform="translate(627.0762987497164 848.8244226905397) rotate(0 241.55813081367995 26.57621703190398)"><path d="M458.18 25.81 C469.21 20.64, 473.62 14.5, 485.81 6.29 M460.33 23.53 C466.2 20.33, 472.02 15.95, 484.25 6.78" stroke="#364fc7" stroke-width="1" fill="none"></path></g><g transform="translate(627.0762987497164 848.8244226905397) rotate(0 241.55813081367995 26.57621703190398)"><path d="M452.93 5.97 C465.65 6.88, 471.68 6.81, 485.81 6.29 M455.08 3.69 C462.16 5.5, 469.3 6.1, 484.25 6.78" stroke="#364fc7" stroke-width="1" fill="none"></path></g></g><mask></mask></svg>